{"title":"UEFA.Euro.2012.Quarter.Final.Spain.vs.France.720p.HDTV.x264-W4F ","uid":7383550,"size":2728913872,"categoryP":"video","categoryS":"hd___tv_shows","magnet":"?xt=urn:btih:a6a4a23ca3b691895aba3093ccde87c80aab102f&amp;dn=UEFA.Euro.2012.Quarter.Final.Spain.vs.France.720p.HDTV.x264-W4F+&amp;tr=udp%3A%2F%2Ftracker.openbittorrent.com%3A80&amp;tr=udp%3A%2F%2Fopen.demonii.com%3A1337&amp;tr=udp%3A%2F%2Ftracker.coppersurfer.tk%3A6969&amp;tr=udp%3A%2F%2Fexodus.desync.com%3A6969","seeders":0,"leechers":1,"uploader":"DibyaTPB","files":3,"time":1340567302,"description":"PublicHD - High-Definition Bittorrent Community \n   \n &lt;a href=&quot; http://publichd.eu/&quot; rel=&quot;nofollow&quot; target=&quot;_NEW&quot;&gt; http://publichd.eu/&lt;/a&gt;\n\n-----------------------------------------------------\n\n\nUEFA.Euro.2012.Quarter.Final.Spain.vs.France.720p.HDTV.x264-W4F [PublicHD]\n\n\nVideo\nID                               : 1\nFormat                           : AVC\nFormat/Info                      : Advanced Video Codec\nFormat profile                   : &lt;a class=&quot;__cf_email__&quot; href=&quot;/cdn-cgi/l/email-protection&quot; data-cfemail=&quot;367e5f515e767a021807&quot;&gt;[email&amp;#160;protected]&lt;/a&gt;&lt;script cf-hash='f9e31' type=&quot;text/javascript&quot;&gt;\n/* &lt;![CDATA[ */!function(){try{var t=&quot;currentScript&quot;in document?document.currentScript:function(){for(var t=document.getElementsByTagName(&quot;script&quot;),e=t.length;e--;)if(t[e].getAttribute(&quot;cf-hash&quot;))return t[e]}();if(t&amp;&amp;t.previousSibling){var e,r,n,i,c=t.previousSibling,a=c.getAttribute(&quot;data-cfemail&quot;);if(a){for(e=&quot;&quot;,r=parseInt(a.substr(0,2),16),n=2;a.length-n;n+=2)i=parseInt(a.substr(n,2),16)^r,e+=String.fromCharCode(i);e=document.createTextNode(e),c.parentNode.replaceChild(e,c)}}}catch(u){}}();/* ]]&gt; */&lt;/script&gt;\nFormat settings, CABAC           : Yes\nFormat settings, ReFrames        : 5 frames\nFormat settings, GOP             : M=3, N=27\nCodec ID                         : V_MPEG4/ISO/AVC\nDuration                         : 1h 36mn\nBit rate                         : 3 301 Kbps\nWidth                            : 1 280 pixels\nHeight                           : 720 pixels\nDisplay aspect ratio             : 16:9\nFrame rate                       : 25.000 fps\nColor space                      : YUV\nChroma subsampling               : 4:2:0\nBit depth                        : 8 bits\nScan type                        : Progressive\nBits/(Pixel*Frame)               : 0.143\nStream size                      : 2.23 GiB (88%)\nWriting library                  : x264 core 125 r2200 999b753\n\nAudio\nID                               : 2\nFormat                           : AC-3\nFormat/Info                      : Audio Coding 3\nMode extension                   : CM (complete main)\nMuxing mode                      : Header stripping\nCodec ID                         : A_AC3\nDuration                         : 1h 36mn\nBit rate mode                    : Constant\nBit rate                         : 384 Kbps\nChannel(s)                       : 2 channels\nChannel positions                : Front: L R\nSampling rate                    : 48.0 KHz\nBit depth                        : 16 bits\nCompression mode                 : Lossy\nDelay relative to video          : 64ms\nStream size                      : 266 MiB (10%)\nTitle                            : PID 661\nLanguage                         : English","torrent":{"xt":"urn:btih:a6a4a23ca3b691895aba3093ccde87c80aab102f","amp;dn":"UEFA.Euro.2012.Quarter.Final.Spain.vs.France.720p.HDTV.x264-W4F+","amp;tr":["udp%3A%2F%2Ftracker.openbittorrent.com%3A80","udp%3A%2F%2Fopen.demonii.com%3A1337","udp%3A%2F%2Ftracker.coppersurfer.tk%3A6969","udp%3A%2F%2Fexodus.desync.com%3A6969"],"infoHash":"a6a4a23ca3b691895aba3093ccde87c80aab102f","infoHashBuffer":{"type":"Buffer","data":[166,164,162,60,163,182,145,137,90,186,48,147,204,222,135,200,10,171,16,47]},"announce":[],"urlList":[]}}